<svg width="39" height="29" viewBox="0 0 39 29" fill="none" xmlns="http://www.w3.org/2000/svg">
<g id="Iconly/Light-Outline/Add-User">
<g id="Add-User">
<path id="Combined-Shape" fill-rule="evenodd" clip-rule="evenodd" d="M15.0976 18.165L15.3259 18.165L15.8318 18.1661C20.1289 18.1836 30.1952 18.4808 30.1952 23.5331C30.1952 28.2174 21.9278 28.8434 15.497 28.867L14.3634 28.8666C10.0663 28.8491 0 28.552 0 23.501C0 18.7177 8.61542 18.165 15.0976 18.165ZM15.0976 20.3525C6.98817 20.3525 2.875 21.4127 2.875 23.501C2.875 25.6098 6.98817 26.6802 15.0976 26.6802C23.207 26.6802 27.3202 25.62 27.3202 23.5331C27.3202 21.4215 23.207 20.3525 15.0976 20.3525ZM32.9745 8.63144C33.768 8.63144 34.412 9.12144 34.412 9.72519L34.4118 11.5544L36.8958 11.5555C37.6893 11.5555 38.3333 12.0455 38.3333 12.6493C38.3333 13.253 37.6893 13.743 36.8958 13.743L34.4118 13.7419L34.412 15.5746C34.412 16.1783 33.768 16.6683 32.9745 16.6683C32.181 16.6683 31.537 16.1783 31.537 15.5746L31.5368 13.7419L29.0567 13.743C28.2632 13.743 27.6192 13.253 27.6192 12.6493C27.6192 12.0455 28.2632 11.5555 29.0567 11.5555L31.5368 11.5544L31.537 9.72519C31.537 9.12144 32.181 8.63144 32.9745 8.63144ZM15.0976 0C20.7192 0 25.2904 3.47958 25.2904 7.75542C25.2904 12.0312 20.7192 15.5108 15.0976 15.5108H15.0382C12.3184 15.5035 9.76925 14.6912 7.85833 13.2271C5.9455 11.7615 4.89708 9.81604 4.9066 7.75104C4.9066 3.47958 9.47792 0 15.0976 0ZM15.0976 2.1875C11.0649 2.1875 7.78161 4.68563 7.78161 7.75542C7.774 9.24146 8.52533 10.6342 9.89575 11.6856C11.2681 12.7356 13.0966 13.3175 15.0439 13.3233L15.0976 14.404V13.3233C19.1322 13.3233 22.4154 10.8252 22.4154 7.75542C22.4154 4.68563 19.1322 2.1875 15.0976 2.1875Z" fill="black"/>
</g>
</g>
</svg>
