<svg width="42" height="40" viewBox="0 0 42 40" fill="none" xmlns="http://www.w3.org/2000/svg">
<g id="Notification - Iconly Pro" opacity="0.9">
<path id="Vector" d="M33.5854 16.9337L33.5854 16.9336L33.5856 16.9282C33.6027 16.5294 33.6251 16.0079 33.6251 15.3063C33.6251 12.887 32.7125 9.89144 30.7493 7.48115C28.7601 5.03919 25.6798 3.19043 21.4308 3.19043C17.1811 3.19043 14.1006 5.03916 12.1118 7.4812L11.9179 7.32333L12.1118 7.4812C10.1487 9.89152 9.23666 12.8871 9.23666 15.3063C9.23666 16.0111 9.25912 16.5341 9.27629 16.9335L9.27629 16.9336L9.27663 16.9414C9.28004 17.0207 9.28324 17.0954 9.28601 17.1656L9.28601 17.1656C9.30295 17.597 9.30089 17.8267 9.2614 18.0594C9.2614 18.0594 9.2614 18.0594 9.2614 18.0594L9.01492 18.0176C8.93588 18.4836 8.68559 19.0576 7.68562 21.1564C7.67565 21.1774 7.6663 21.1986 7.65755 21.2199L33.5854 16.9337ZM33.5854 16.9337L33.5756 17.1651L33.5756 17.1657C33.5587 17.5969 33.5607 17.8267 33.6002 18.0595L33.5854 16.9337ZM31.1108 28.7695L31.218 28.9953L33.8467 18.0176C33.9258 18.4836 34.1761 19.0576 35.176 21.1564L34.9502 21.2637C34.9502 21.2638 34.9503 21.2639 34.9503 21.264C34.9584 21.2809 34.9658 21.2978 34.9726 21.3145L34.9727 21.3147C35.6667 23.0157 35.5079 24.56 34.6936 25.8682C33.9094 27.1279 32.5797 28.0715 31.1108 28.7695C31.1108 28.7695 31.1108 28.7695 31.1108 28.7695ZM11.3992 16.844L11.3992 16.844C11.4029 16.9301 11.4064 17.0121 11.4096 17.0918C11.4269 17.5333 11.4348 17.9329 11.3598 18.3746C11.2192 19.2033 10.7905 20.1088 9.88368 22.0121L9.86633 22.0483L9.86278 22.0557L9.85973 22.0634C9.39613 23.2213 9.53958 24.1164 10.0008 24.8577L10.0008 24.8577C10.4969 25.6549 11.4275 26.3762 12.7069 26.9841L12.8142 26.7583L12.707 26.9841C15.2673 28.2004 18.8164 28.7698 21.4308 28.7698C24.0444 28.7698 27.5931 28.2004 30.1535 26.9841L30.1535 26.9841C31.4329 26.3762 32.3636 25.6549 32.86 24.8576L32.86 24.8575C33.3214 24.1163 33.465 23.2212 33.0019 22.0634L32.999 22.0561L32.9956 22.049L32.9781 22.0122L32.978 22.0119C32.0711 20.1088 31.6424 19.2033 31.5018 18.3746L31.2553 18.4164L31.5018 18.3746C31.4269 17.9329 31.4348 17.5334 31.4521 17.0917C31.4552 17.0122 31.4587 16.93 31.4624 16.844C31.4796 16.4448 31.5001 15.9671 31.5001 15.3063C31.5001 13.3017 30.7259 10.7394 29.0629 8.69773C27.4255 6.68755 24.9401 5.19043 21.4308 5.19043C17.9207 5.19043 15.4353 6.68759 13.7983 8.69767C12.1355 10.7393 11.3617 13.3016 11.3617 15.3063C11.3617 15.9668 11.3821 16.4444 11.3992 16.8435L11.3992 16.844Z" fill="black" stroke="black" stroke-width="0.5"/>
<path id="Vector_2" d="M18.181 33.5289L18.1809 33.5288C17.792 33.114 17.1169 33.0765 16.679 33.4489L18.181 33.5289ZM18.181 33.5289C20.0423 35.5133 22.8328 35.4941 24.6811 33.5279L24.6811 33.5279M18.181 33.5289L24.6811 33.5279M24.6811 33.5279C25.0704 33.1136 25.7456 33.0767 26.1831 33.4498C26.6133 33.8167 26.6479 34.4389 26.2651 34.8461L26.2651 34.8461M24.6811 33.5279L26.2651 34.8461M26.2651 34.8461C23.5833 37.6992 19.3071 37.7368 16.5952 34.8453L16.5952 34.8453M26.2651 34.8461L16.5952 34.8453M16.5952 34.8453C16.213 34.4378 16.2482 33.8155 16.6789 33.449L16.5952 34.8453Z" fill="black" stroke="black" stroke-width="0.51"/>
</g>
</svg>
